<?xml version="1.0" standalone="no"?>
<!DOCTYPE svg PUBLIC "-//W3C//DTD SVG 20010904//EN"
 "http://www.w3.org/TR/2001/REC-SVG-20010904/DTD/svg10.dtd">
<svg version="1.0" xmlns="http://www.w3.org/2000/svg"
 width="512.000000pt" height="512.000000pt" viewBox="0 0 512.000000 512.000000"
 preserveAspectRatio="xMidYMid meet">
<metadata>
Created by potrace 1.11, written by Peter Selinger 2001-2013
</metadata>
<g transform="translate(0.000000,512.000000) scale(0.100000,-0.100000)"
fill="#000000" stroke="none">
<path d="M95 4900 c-16 -26 382 -433 560 -573 16 -12 75 -59 203 -160 8 -6 17
-5 27 3 13 11 15 64 15 364 0 260 -3 355 -12 364 -16 16 -783 17 -793 2z"/>
<path d="M1077 4903 c-10 -9 -8 -795 1 -810 12 -19 742 -20 753 -1 5 7 9 191
9 409 0 353 -2 398 -16 403 -21 8 -739 8 -747 -1z"/>
<path d="M2032 4901 c-18 -11 -19 -785 -1 -807 16 -20 731 -21 747 -1 18 21
17 797 0 808 -17 11 -729 11 -746 0z"/>
<path d="M2982 4898 c-17 -17 -17 -789 0 -806 14 -14 724 -17 746 -3 20 12 19
800 0 812 -22 14 -732 11 -746 -3z"/>
<path d="M3933 4903 c-20 -8 -19 -796 1 -812 17 -14 775 -16 789 -2 9 9 11
796 2 811 -6 10 -767 14 -792 3z"/>
<path d="M47 4053 c-4 -3 -7 -863 -7 -1909 0 -1716 2 -1904 16 -1918 14 -14
239 -16 2333 -16 1940 0 2320 2 2330 14 8 10 10 390 9 1426 -3 1321 -4 1414
-20 1424 -13 8 -37 4 -100 -16 -86 -28 -153 -39 -493 -87 -363 -51 -789 -74
-1115 -60 -124 5 -232 12 -240 14 -8 2 -76 9 -150 15 -128 10 -217 23 -390 56
-41 8 -102 20 -135 25 -33 6 -93 19 -132 30 -40 10 -106 28 -145 38 -124 33
-182 51 -295 92 -29 10 -79 28 -110 40 -32 11 -76 29 -98 39 -22 10 -69 30
-105 45 -168 70 -394 191 -565 303 -91 60 -283 197 -295 212 -3 3 -48 42 -100
87 -52 44 -111 97 -129 117 -34 35 -51 43 -64 29z m2595 -2117 c43 -14 91 -34
107 -45 43 -31 68 -27 76 10 8 36 9 36 109 42 119 6 116 12 116 -231 0 -141
-3 -201 -12 -210 -8 -8 -47 -12 -109 -12 l-97 0 -34 63 c-40 72 -117 140 -180
159 -96 28 -238 7 -315 -46 -160 -108 -213 -391 -111 -589 29 -58 96 -125 153
-155 44 -23 62 -26 150 -27 92 0 104 2 148 28 48 29 121 107 150 162 9 17 21
49 27 73 10 38 14 42 41 42 16 0 75 -23 130 -51 101 -50 101 -50 95 -82 -24
-123 -167 -292 -297 -351 -205 -92 -493 -83 -691 21 -142 75 -233 186 -290
355 -18 53 -21 87 -22 208 0 126 3 154 24 215 76 227 209 353 445 421 116 33
280 33 387 0z m-1581 -8 c14 -21 11 -182 -3 -196 -7 -7 -29 -12 -50 -12 -28 0
-40 -5 -49 -21 -7 -15 -10 -120 -7 -353 3 -314 4 -333 25 -378 25 -54 66 -84
128 -94 56 -8 127 25 157 75 23 35 23 42 26 383 2 240 0 353 -8 367 -7 15 -21
21 -45 21 -18 0 -37 5 -41 12 -13 21 -13 176 0 194 11 14 38 16 235 16 156 -1
227 -4 237 -13 10 -8 14 -35 14 -99 0 -105 -7 -115 -89 -115 l-56 0 -5 -385
c-5 -371 -6 -387 -28 -441 -57 -142 -138 -198 -323 -225 -109 -15 -124 -15
-214 0 -151 26 -236 78 -293 180 -46 81 -52 137 -52 511 0 252 -3 344 -12 353
-7 7 -38 12 -69 12 -35 0 -61 5 -66 12 -11 19 -8 185 4 200 16 19 572 16 584
-4z m3290 0 c14 -22 11 -362 -3 -376 -15 -15 -191 -16 -219 -2 -16 9 -19 22
-19 79 0 43 -5 72 -12 79 -16 12 -328 13 -344 1 -17 -14 -12 -258 5 -269 8 -4
64 -6 125 -4 81 3 112 1 118 -8 13 -21 10 -206 -4 -214 -6 -4 -62 -6 -124 -5
-82 2 -114 -1 -120 -11 -14 -23 -11 -288 3 -300 9 -7 37 -9 77 -5 93 9 97 4
94 -118 l-3 -100 -339 -3 c-242 -2 -343 1 -352 9 -18 15 -20 179 -2 197 7 7
41 12 85 12 61 0 74 3 83 19 14 27 14 765 -1 792 -9 17 -19 19 -79 17 -95 -3
-100 3 -100 113 0 74 3 90 19 101 27 19 1100 15 1112 -4z"/>
<path d="M1340 3887 c0 -23 29 -41 215 -131 99 -48 198 -97 221 -108 23 -12
46 -18 53 -14 16 10 15 238 -1 254 -18 18 -488 17 -488 -1z"/>
<path d="M2029 3884 c-9 -11 -12 -54 -10 -167 2 -143 9 -177 33 -177 6 0 24
-7 41 -14 35 -16 126 -49 197 -71 25 -7 65 -20 90 -29 25 -8 77 -24 115 -34
39 -11 102 -29 140 -40 107 -31 120 -33 139 -19 16 11 17 38 16 277 0 175 -4
268 -12 277 -8 10 -85 13 -373 13 -316 0 -364 -2 -376 -16z"/>
<path d="M2982 3888 c-9 -9 -12 -90 -12 -303 0 -337 -6 -319 101 -336 35 -5
109 -18 164 -29 247 -48 483 -75 500 -59 3 4 6 165 6 358 1 262 -2 356 -11
366 -11 13 -69 15 -374 15 -268 0 -365 -3 -374 -12z"/>
<path d="M3932 3888 c-9 -9 -12 -107 -12 -380 0 -346 1 -368 18 -377 22 -12
524 -33 669 -29 57 2 107 8 113 14 12 12 16 756 5 774 -10 15 -778 13 -793 -2z"/>
<path d="M4890 375 c-13 -15 -7 -45 9 -45 8 0 20 32 21 53 0 12 -17 8 -30 -8z"/>
<path d="M5020 375 c0 -8 7 -15 15 -15 8 0 15 7 15 15 0 8 -7 15 -15 15 -8 0
-15 -7 -15 -15z"/>
<path d="M4957 344 c-8 -8 1 -24 14 -24 5 0 9 7 9 15 0 15 -12 20 -23 9z"/>
<path d="M4884 306 c-8 -21 2 -46 19 -46 10 0 13 8 9 25 -6 31 -20 42 -28 21z"/>
<path d="M5020 269 c-7 -11 -10 -22 -8 -25 6 -6 48 26 48 37 0 17 -29 9 -40
-12z"/>
</g>
</svg>
