<?xml version="1.0" encoding="UTF-8"?>
<svg width="540px" height="437px" viewBox="0 0 540 437" version="1.1" xmlns="http://www.w3.org/2000/svg" xmlns:xlink="http://www.w3.org/1999/xlink">
    <!-- Generator: Sketch 48.2 (47327) - http://www.bohemiancoding.com/sketch -->
    <title>Group 2</title>
    <desc>Created with Sketch.</desc>
    <defs></defs>
    <g id="Education-Overview" stroke="none" stroke-width="1" fill="none" fill-rule="evenodd" transform="translate(-499.000000, -822.000000)">
        <g id="Group" transform="translate(435.000000, 790.000000)" stroke="#404142" stroke-width="1.05678233">
            <g id="Group-2" transform="translate(64.000000, 30.000000)">
                <path d="M272.056782,2.75840336 L272.056782,110.027468" id="Path-2-Copy"></path>
                <path d="M470.731861,2.75840336 L470.731861,56.8735427" id="Path-2-Copy-3"></path>
                <path d="M320.66877,2.75840336 L320.66877,437.672008" id="Path-2-Copy-2"></path>
                <polyline id="Path-3" points="200.195584 185.571429 277.090569 185.571429 277.090569 221.756379 321.300152 221.756379"></polyline>
                <path d="M200.195584,95.75 L218.629511,95.75" id="Path-3-Copy-2"></path>
                <path d="M320.66877,91.5231092 L339.102697,91.5231092" id="Path-3-Copy-3"></path>
                <path d="M320.66877,180.287815 L339.102697,180.287815" id="Path-3-Copy-4"></path>
                <path d="M320.66877,351.476891 L339.102697,351.476891" id="Path-3-Copy-6"></path>
                <path d="M320.66877,265.882353 L439.651855,265.882353" id="Path-3-Copy-5"></path>
                <path d="M45.2217226,2.75840336 L539.416682,2.75840336" id="Path"></path>
                <path d="M0.971071614,438.128151 L538.3599,438.128151" id="Path-Copy"></path>
                <path d="M219.217666,2.75840336 L219.217666,186.064337" id="Path-2"></path>
                <path d="M4.69085174,2.75840336 L36.0845805,2.75840336" id="Path-3-Copy"></path>
            </g>
        </g>
    </g>
</svg>